<svg class="icon" viewBox="0 0 1024 1024" xmlns="http://www.w3.org/2000/svg" width="32" height="32"><defs><style/></defs><path d="M638.238 372.448c-55.902 0-19.447-94.093-19.447-94.093l-.12.134c16.712-38.927 9.251-85.76-22.532-117.543-41.662-41.633-109.202-41.633-150.888 0L167.746 438.452a106.703 106.703 0 0 0-31.228 75.427 106.81 106.81 0 0 0 31.228 75.461l277.504 277.5c20.844 20.812 48.153 31.224 75.452 31.224 27.287 0 54.615-10.412 75.436-31.224 31.763-31.758 39.232-78.504 22.595-117.419l.057.072s-36.454-94.155 19.448-94.155l126.926 2.717c67.4 9.378 125.73-44.567 125.73-144.163 0-96.718-63.397-152.39-125.73-144.03l-126.926 2.586zm126.925-5.752" fill="#fff"/></svg>