<?xml version="1.0" standalone="no"?><!DOCTYPE svg PUBLIC "-//W3C//DTD SVG 1.1//EN" "http://www.w3.org/Graphics/SVG/1.1/DTD/svg11.dtd"><svg t="1544605754174" class="icon" style="" viewBox="0 0 1024 1024" version="1.1" xmlns="http://www.w3.org/2000/svg" p-id="9050" xmlns:xlink="http://www.w3.org/1999/xlink" width="32" height="32"><defs><style type="text/css"></style></defs><path d="M411.409 204.8c0-56.457 45.943-102.4 102.4-102.4s102.4 45.943 102.4 102.4-45.943 102.4-102.4 102.4-102.4-45.943-102.4-102.4z" p-id="9051" fill="#ffffff"></path><path d="M411.409 512c0-56.457 45.943-102.4 102.4-102.4s102.4 45.943 102.4 102.4-45.943 102.4-102.4 102.4-102.4-45.943-102.4-102.4z" p-id="9052" fill="#ffffff"></path><path d="M411.409 819.2c0-56.457 45.943-102.4 102.4-102.4s102.4 45.943 102.4 102.4-45.943 102.4-102.4 102.4-102.4-45.943-102.4-102.4z" p-id="9053" fill="#ffffff"></path></svg>